<svg width="123" height="32" viewBox="0 0 123 32" fill="none" xmlns="http://www.w3.org/2000/svg">
<g clip-path="url(#clip0)">
<path d="M27.3367 4.65026C24.3285 1.65324 20.3285 0.00182855 16.0668 0C7.28491 0 0.13819 7.113 0.134675 15.8559C0.133651 18.6506 0.867096 21.3786 2.26118 23.7833L0.000915527 32L8.44673 29.7951C10.7737 31.0586 13.3937 31.7244 16.06 31.7255H16.0667H16.0668C24.8473 31.7255 31.9951 24.6112 31.9988 15.8687C32.0003 11.6315 30.3445 7.64748 27.3367 4.65026ZM16.0668 29.0473H16.0617C13.6851 29.0461 11.3546 28.4108 9.32181 27.2099L8.83804 26.9244L3.82611 28.2327L5.16423 23.3694L4.84904 22.8708C3.52339 20.7722 2.82355 18.3471 2.82455 15.8569C2.82746 8.5901 8.76754 2.67822 16.0718 2.67822C19.609 2.67968 22.9335 4.05235 25.4338 6.54338C27.9339 9.03438 29.3098 12.3458 29.3087 15.8676C29.3056 23.1347 23.3654 29.0473 16.0668 29.0473Z" fill="#E0E0E0"/>
<path d="M0.732574 31.0884L2.88959 23.247C1.55885 20.9521 0.85904 18.3485 0.859879 15.682C0.863369 7.33866 7.68369 0.550781 16.0637 0.550781C20.131 0.55261 23.9483 2.1285 26.8185 4.98869C29.6892 7.84885 31.2692 11.6506 31.2676 15.6938C31.2641 24.0374 24.4433 30.8259 16.0643 30.8259C16.0637 30.8259 16.0648 30.8259 16.0643 30.8259H16.0576C13.5131 30.8251 11.013 30.1892 8.79244 28.9843L0.732574 31.0884Z" fill="url(#paint0_linear)"/>
<path fill-rule="evenodd" clip-rule="evenodd" d="M12.1294 9.12424C11.8346 8.47179 11.5243 8.45873 11.2438 8.44731C11.0145 8.43752 10.7519 8.43812 10.4897 8.43812C10.2273 8.43812 9.80099 8.53628 9.44043 8.92832C9.07966 9.32037 8.06296 10.2681 8.06296 12.1956C8.06296 14.1234 9.47323 15.986 9.6698 16.2476C9.86658 16.5088 12.3922 20.5908 16.3919 22.1612C19.7161 23.4663 20.3926 23.2067 21.1141 23.1414C21.8356 23.0761 23.4423 22.1939 23.7702 21.279C24.0982 20.3643 24.0982 19.5802 23.9998 19.4163C23.9014 19.2531 23.639 19.1551 23.2455 18.9592C22.8519 18.7633 20.9173 17.8153 20.5565 17.6847C20.1958 17.5541 19.9334 17.4888 19.671 17.8811C19.4086 18.2729 18.6549 19.1551 18.4253 19.4163C18.1958 19.6781 17.9662 19.7108 17.5726 19.5149C17.1791 19.3184 15.9117 18.9051 14.4081 17.5704C13.2383 16.5321 12.4485 15.2496 12.2189 14.8574C11.9894 14.4656 12.1943 14.2533 12.3917 14.058C12.5684 13.8825 12.7853 13.6007 12.9821 13.3719C13.1784 13.1431 13.244 12.9798 13.3752 12.7186C13.5064 12.457 13.4408 12.2282 13.3424 12.0323C13.244 11.8364 12.4793 9.89892 12.1294 9.12424Z" fill="white"/>
<path d="M27.2054 4.59982C24.2318 1.63721 20.2777 0.00478436 16.0649 0.00292969C7.38378 0.00292969 0.319111 7.03427 0.315622 15.6768C0.314598 18.4394 1.03962 21.1361 2.4177 23.5132L0.183411 31.6356L8.53228 29.456C10.8326 30.7049 13.4225 31.3631 16.0582 31.3641H16.0648H16.0649C24.7446 31.3641 31.8103 24.3316 31.814 15.6894C31.8155 11.5009 30.1787 7.56264 27.2054 4.59982ZM16.0649 28.7168H16.0598C13.7105 28.7156 11.4067 28.0877 9.3973 26.9006L8.91907 26.6183L3.96469 27.9116L5.28743 23.1041L4.97586 22.6112C3.66542 20.5368 2.97362 18.1394 2.97464 15.6778C2.9775 8.49447 8.84938 2.65046 16.0699 2.65046C19.5664 2.65189 22.8527 4.00881 25.3243 6.47123C27.7958 8.93366 29.1558 12.2071 29.1548 15.6885C29.1517 22.872 23.2796 28.7168 16.0649 28.7168Z" fill="white"/>
</g>
<path d="M46.6445 16.6045H42.4678V21H41.1553V11.0469H47.3213V12.127H42.4678V15.5312H46.6445V16.6045ZM53.0293 21C52.9564 20.8542 52.8971 20.5944 52.8516 20.2207C52.2637 20.8314 51.5618 21.1367 50.7461 21.1367C50.0169 21.1367 49.4176 20.9316 48.9482 20.5215C48.4834 20.1068 48.251 19.5827 48.251 18.9492C48.251 18.179 48.5426 17.582 49.126 17.1582C49.7139 16.7298 50.5387 16.5156 51.6006 16.5156H52.8311V15.9346C52.8311 15.4925 52.6989 15.1416 52.4346 14.8818C52.1702 14.6175 51.7806 14.4854 51.2656 14.4854C50.8145 14.4854 50.4362 14.5993 50.1309 14.8271C49.8255 15.055 49.6729 15.3307 49.6729 15.6543H48.4014C48.4014 15.2852 48.5312 14.9297 48.791 14.5879C49.0553 14.2415 49.4108 13.9681 49.8574 13.7676C50.3086 13.5671 50.8031 13.4668 51.3408 13.4668C52.193 13.4668 52.8607 13.681 53.3438 14.1094C53.8268 14.5332 54.0775 15.1188 54.0957 15.8662V19.2705C54.0957 19.9495 54.1823 20.4896 54.3555 20.8906V21H53.0293ZM50.9307 20.0361C51.3271 20.0361 51.7031 19.9336 52.0586 19.7285C52.4141 19.5234 52.6715 19.2568 52.8311 18.9287V17.4111H51.8398C50.2904 17.4111 49.5156 17.8646 49.5156 18.7715C49.5156 19.168 49.6478 19.4779 49.9121 19.7012C50.1764 19.9245 50.516 20.0361 50.9307 20.0361ZM57.4521 21H56.1875V10.5H57.4521V21ZM62.5518 21.1367C61.5492 21.1367 60.7334 20.8086 60.1045 20.1523C59.4756 19.4915 59.1611 18.6097 59.1611 17.5068V17.2744C59.1611 16.5407 59.3001 15.8867 59.5781 15.3125C59.8607 14.7337 60.2526 14.2826 60.7539 13.959C61.2598 13.6309 61.8066 13.4668 62.3945 13.4668C63.3561 13.4668 64.1035 13.7835 64.6367 14.417C65.1699 15.0505 65.4365 15.9574 65.4365 17.1377V17.6641H60.4258C60.444 18.3932 60.6559 18.9834 61.0615 19.4346C61.4717 19.8812 61.9912 20.1045 62.6201 20.1045C63.0667 20.1045 63.445 20.0133 63.7549 19.8311C64.0648 19.6488 64.3359 19.4072 64.5684 19.1064L65.3408 19.708C64.721 20.6605 63.7913 21.1367 62.5518 21.1367ZM62.3945 14.5059C61.8841 14.5059 61.4557 14.6927 61.1094 15.0664C60.763 15.4355 60.5488 15.9551 60.4668 16.625H64.1719V16.5293C64.1354 15.8867 63.9622 15.39 63.6523 15.0391C63.3424 14.6836 62.9232 14.5059 62.3945 14.5059ZM73.3457 20.1045C73.7969 20.1045 74.1911 19.9678 74.5283 19.6943C74.8656 19.4209 75.0524 19.0791 75.0889 18.6689H76.2852C76.2624 19.0928 76.1165 19.4961 75.8477 19.8789C75.5788 20.2617 75.2188 20.5671 74.7676 20.7949C74.321 21.0228 73.847 21.1367 73.3457 21.1367C72.3385 21.1367 71.5365 20.8018 70.9395 20.1318C70.347 19.4574 70.0508 18.5368 70.0508 17.3701V17.1582C70.0508 16.4382 70.1829 15.7979 70.4473 15.2373C70.7116 14.6768 71.0898 14.2415 71.582 13.9316C72.0788 13.6217 72.6644 13.4668 73.3389 13.4668C74.1683 13.4668 74.8564 13.7152 75.4033 14.2119C75.9548 14.7087 76.2487 15.3535 76.2852 16.1465H75.0889C75.0524 15.668 74.8701 15.276 74.542 14.9707C74.2184 14.6608 73.8174 14.5059 73.3389 14.5059C72.6963 14.5059 72.1973 14.7383 71.8418 15.2031C71.4909 15.6634 71.3154 16.3311 71.3154 17.2061V17.4453C71.3154 18.2975 71.4909 18.9538 71.8418 19.4141C72.1927 19.8743 72.694 20.1045 73.3457 20.1045ZM77.3721 17.2334C77.3721 16.5088 77.5133 15.8571 77.7959 15.2783C78.083 14.6995 78.4795 14.2529 78.9854 13.9385C79.4958 13.624 80.0768 13.4668 80.7285 13.4668C81.7357 13.4668 82.5492 13.8154 83.1689 14.5127C83.7933 15.21 84.1055 16.1374 84.1055 17.2949V17.3838C84.1055 18.1038 83.9665 18.751 83.6885 19.3252C83.415 19.8949 83.0208 20.3392 82.5059 20.6582C81.9954 20.9772 81.4076 21.1367 80.7422 21.1367C79.7396 21.1367 78.9261 20.7881 78.3018 20.0908C77.682 19.3936 77.3721 18.4707 77.3721 17.3223V17.2334ZM78.6436 17.3838C78.6436 18.2041 78.8327 18.8626 79.2109 19.3594C79.5938 19.8561 80.1042 20.1045 80.7422 20.1045C81.3848 20.1045 81.8952 19.8538 82.2734 19.3525C82.6517 18.8467 82.8408 18.1403 82.8408 17.2334C82.8408 16.4222 82.6471 15.766 82.2598 15.2646C81.877 14.7588 81.3665 14.5059 80.7285 14.5059C80.1042 14.5059 79.6006 14.7542 79.2178 15.251C78.835 15.7477 78.6436 16.4587 78.6436 17.3838ZM86.8877 13.6035L86.9287 14.5332C87.4938 13.8223 88.2321 13.4668 89.1436 13.4668C90.7067 13.4668 91.4951 14.3486 91.5088 16.1123V21H90.2441V16.1055C90.2396 15.5723 90.1165 15.1781 89.875 14.9229C89.638 14.6676 89.2666 14.54 88.7607 14.54C88.3506 14.54 87.9906 14.6494 87.6807 14.8682C87.3708 15.0869 87.1292 15.374 86.9561 15.7295V21H85.6914V13.6035H86.8877ZM93.0811 17.2334C93.0811 16.5088 93.2223 15.8571 93.5049 15.2783C93.792 14.6995 94.1885 14.2529 94.6943 13.9385C95.2048 13.624 95.7858 13.4668 96.4375 13.4668C97.4447 13.4668 98.2581 13.8154 98.8779 14.5127C99.5023 15.21 99.8145 16.1374 99.8145 17.2949V17.3838C99.8145 18.1038 99.6755 18.751 99.3975 19.3252C99.124 19.8949 98.7298 20.3392 98.2148 20.6582C97.7044 20.9772 97.1165 21.1367 96.4512 21.1367C95.4486 21.1367 94.6351 20.7881 94.0107 20.0908C93.391 19.3936 93.0811 18.4707 93.0811 17.3223V17.2334ZM94.3525 17.3838C94.3525 18.2041 94.5417 18.8626 94.9199 19.3594C95.3027 19.8561 95.8132 20.1045 96.4512 20.1045C97.0938 20.1045 97.6042 19.8538 97.9824 19.3525C98.3607 18.8467 98.5498 18.1403 98.5498 17.2334C98.5498 16.4222 98.3561 15.766 97.9688 15.2646C97.5859 14.7588 97.0755 14.5059 96.4375 14.5059C95.8132 14.5059 95.3096 14.7542 94.9268 15.251C94.5439 15.7477 94.3525 16.4587 94.3525 17.3838ZM105.707 19.0381C105.707 18.6963 105.577 18.432 105.317 18.2451C105.062 18.0537 104.613 17.8896 103.971 17.7529C103.333 17.6162 102.825 17.4521 102.446 17.2607C102.073 17.0693 101.795 16.8415 101.612 16.5771C101.435 16.3128 101.346 15.9984 101.346 15.6338C101.346 15.0277 101.601 14.515 102.111 14.0957C102.626 13.6764 103.283 13.4668 104.08 13.4668C104.919 13.4668 105.598 13.6833 106.117 14.1162C106.641 14.5492 106.903 15.1029 106.903 15.7773H105.632C105.632 15.431 105.484 15.1325 105.188 14.8818C104.896 14.6312 104.527 14.5059 104.08 14.5059C103.62 14.5059 103.26 14.6061 103 14.8066C102.74 15.0072 102.61 15.2692 102.61 15.5928C102.61 15.8981 102.731 16.1283 102.973 16.2832C103.214 16.4382 103.649 16.5863 104.278 16.7275C104.912 16.8688 105.424 17.0374 105.816 17.2334C106.208 17.4294 106.498 17.6663 106.685 17.9443C106.876 18.2178 106.972 18.5527 106.972 18.9492C106.972 19.61 106.707 20.141 106.179 20.542C105.65 20.9385 104.964 21.1367 104.121 21.1367C103.529 21.1367 103.005 21.0319 102.549 20.8223C102.093 20.6126 101.735 20.321 101.476 19.9473C101.22 19.569 101.093 19.1611 101.093 18.7236H102.357C102.38 19.1475 102.549 19.4847 102.863 19.7354C103.182 19.9814 103.602 20.1045 104.121 20.1045C104.6 20.1045 104.982 20.0088 105.27 19.8174C105.561 19.6214 105.707 19.3617 105.707 19.0381ZM111.586 20.1045C112.037 20.1045 112.431 19.9678 112.769 19.6943C113.106 19.4209 113.293 19.0791 113.329 18.6689H114.525C114.503 19.0928 114.357 19.4961 114.088 19.8789C113.819 20.2617 113.459 20.5671 113.008 20.7949C112.561 21.0228 112.087 21.1367 111.586 21.1367C110.579 21.1367 109.777 20.8018 109.18 20.1318C108.587 19.4574 108.291 18.5368 108.291 17.3701V17.1582C108.291 16.4382 108.423 15.7979 108.688 15.2373C108.952 14.6768 109.33 14.2415 109.822 13.9316C110.319 13.6217 110.905 13.4668 111.579 13.4668C112.409 13.4668 113.097 13.7152 113.644 14.2119C114.195 14.7087 114.489 15.3535 114.525 16.1465H113.329C113.293 15.668 113.11 15.276 112.782 14.9707C112.459 14.6608 112.058 14.5059 111.579 14.5059C110.937 14.5059 110.438 14.7383 110.082 15.2031C109.731 15.6634 109.556 16.3311 109.556 17.2061V17.4453C109.556 18.2975 109.731 18.9538 110.082 19.4141C110.433 19.8743 110.934 20.1045 111.586 20.1045ZM115.612 17.2334C115.612 16.5088 115.754 15.8571 116.036 15.2783C116.323 14.6995 116.72 14.2529 117.226 13.9385C117.736 13.624 118.317 13.4668 118.969 13.4668C119.976 13.4668 120.789 13.8154 121.409 14.5127C122.034 15.21 122.346 16.1374 122.346 17.2949V17.3838C122.346 18.1038 122.207 18.751 121.929 19.3252C121.655 19.8949 121.261 20.3392 120.746 20.6582C120.236 20.9772 119.648 21.1367 118.982 21.1367C117.98 21.1367 117.166 20.7881 116.542 20.0908C115.922 19.3936 115.612 18.4707 115.612 17.3223V17.2334ZM116.884 17.3838C116.884 18.2041 117.073 18.8626 117.451 19.3594C117.834 19.8561 118.344 20.1045 118.982 20.1045C119.625 20.1045 120.135 19.8538 120.514 19.3525C120.892 18.8467 121.081 18.1403 121.081 17.2334C121.081 16.4222 120.887 15.766 120.5 15.2646C120.117 14.7588 119.607 14.5059 118.969 14.5059C118.344 14.5059 117.841 14.7542 117.458 15.251C117.075 15.7477 116.884 16.4587 116.884 17.3838Z" fill="#219653"/>
<path d="M40 22.3672H122.975V23.0508H40V22.3672Z" fill="#219653"/>
<defs>
<linearGradient id="paint0_linear" x1="16.0001" y1="31.0884" x2="16.0001" y2="0.550832" gradientUnits="userSpaceOnUse">
<stop stop-color="#20B038"/>
<stop offset="1" stop-color="#60D66A"/>
</linearGradient>
<clipPath id="clip0">
<rect width="32" height="32" fill="white"/>
</clipPath>
</defs>
</svg>
